<?xml version="1.0" encoding="UTF-8" standalone="no"?>
<!DOCTYPE svg PUBLIC "-//W3C//DTD SVG 1.1//EN" "http://www.w3.org/Graphics/SVG/1.1/DTD/svg11.dtd">
<svg width="100%" height="100%" viewBox="0 0 24 24" xmlns="http://www.w3.org/2000/svg" xmlns:xlink="http://www.w3.org/1999/xlink" xml:space="preserve" style="fill-rule:evenodd;clip-rule:evenodd;stroke-linejoin:round;stroke-miterlimit:2;">

    <path xmlns="http://www.w3.org/2000/svg" d="M156.396 22.709H159.647L166.723 43.3193L165.756 46H164.174L156.396 22.709ZM165.8 36.2441L170.59 22.709H173.842L167.733 40.2871H167.206L165.8 36.2441ZM176.435 47.0107L178.061 40.3311H180.873L179.247 47.0107H176.435ZM178.412 31.7178C178.412 30.8975 178.793 30.3555 179.555 30.0918C179.76 30.0039 179.965 29.96 180.17 29.96C180.99 29.96 181.532 30.3408 181.796 31.1025C181.884 31.3076 181.928 31.5127 181.928 31.7178C181.928 32.5381 181.547 33.0801 180.785 33.3438C180.58 33.4316 180.375 33.4756 180.17 33.4756C179.35 33.4756 178.808 33.0947 178.544 32.333C178.456 32.1279 178.412 31.9229 178.412 31.7178Z" fill="#2961DB"/>
</svg>
